<?xml version="1.0" encoding="UTF-8"?>
<!--Generator: Apple Native CoreSVG 341-->
<!DOCTYPE svg
PUBLIC "-//W3C//DTD SVG 1.1//EN"
       "http://www.w3.org/Graphics/SVG/1.1/DTD/svg11.dtd">
<svg version="1.1" xmlns="http://www.w3.org/2000/svg" xmlns:xlink="http://www.w3.org/1999/xlink" width="15.4017" height="15.2768" viewBox="0 0 15.4017 15.2768">
 <g id="s" transform="matrix(0.13 0 0 0.13 -1.13395 12.2197)">
  <path d="M67.9913 16.0737Q68.6335 16.0737 69.2757 16.0371Q69.9178 16.0006 70.5658 15.9444L72.9773 20.5179Q73.6424 22.0194 75.1134 22.7392Q76.5844 23.4591 78.2667 23.2203Q81.8156 22.6169 82.2993 18.9487L83.0008 13.7515Q84.2803 13.4247 85.4743 12.9739Q86.6684 12.5231 87.8345 12.0679L91.6958 15.4988Q94.4555 17.967 97.6509 16.1584Q100.711 14.2973 99.9374 10.8009L98.7988 5.66548Q99.8293 4.89869 100.829 4.06466Q101.829 3.23064 102.845 2.32968L107.664 4.40855Q110.923 5.78975 113.384 2.90708Q114.344 1.7073 114.495 0.139944Q114.646-1.42741 113.743-2.866L110.957-7.36159Q111.666-8.44975 112.277-9.55066Q112.888-10.6516 113.469-11.8122L118.729-11.5574Q120.354-11.5006 121.737-12.4025Q123.12-13.3043 123.603-14.8678Q124.149-16.3739 123.665-17.9359Q123.182-19.4979 121.977-20.4641L117.798-23.6966Q118.119-24.9763 118.376-26.2637Q118.633-27.5511 118.763-28.7838L123.705-30.4266Q127.197-31.5748 127.197-35.1184Q127.197-38.6676 123.705-39.8158L118.763-41.4527Q118.633-42.7481 118.376-44.0042Q118.119-45.2603 117.798-46.5455L121.92-49.7782Q123.182-50.8018 123.663-52.304Q124.144-53.8061 123.603-55.2551Q123.12-56.8754 121.737-57.7774Q120.354-58.6794 118.729-58.6168L113.469-58.4244Q112.889-59.5905 112.278-60.7174Q111.666-61.8442 110.957-62.9321L113.743-67.3709Q114.589-68.7523 114.467-70.3456Q114.345-71.9389 113.384-73.0814Q110.923-75.9124 107.606-74.5883L102.731-72.6291Q101.829-73.4675 100.829-74.2757Q99.8293-75.0839 98.7988-75.9081L99.9374-81.038Q100.711-84.6025 97.5367-86.3952Q94.1698-88.2038 91.6958-85.7299L87.8345-82.2531Q86.6684-82.7655 85.4458-83.1851Q84.2232-83.6047 83.0008-83.9942L82.2993-89.1287Q81.8156-92.7915 78.1528-93.4571Q76.5273-93.6962 75.1134-92.9478Q73.6995-92.1994 73.0344-90.8745L70.5658-86.1815Q69.9178-86.2436 69.2757-86.2459Q68.6335-86.2482 67.9913-86.2482Q67.3376-86.2482 66.698-86.2459Q66.0584-86.2436 65.3536-86.1815L62.9366-90.8174Q61.3152-93.9979 57.6472-93.4Q54.0983-92.7915 53.6202-89.1287L52.9186-83.9939Q51.6908-83.6044 50.4682-83.1877Q49.2455-82.771 48.0849-82.2531L44.2753-85.673Q41.75-88.2041 38.3202-86.3952Q35.2025-84.6025 35.9821-80.9809L37.1151-75.9081Q36.0846-75.0839 35.0846-74.2757Q34.0845-73.4675 33.1259-72.6291L28.2562-74.5883Q24.9968-75.9124 22.535-73.0814Q21.5693-71.9389 21.4498-70.3456Q21.3303-68.7523 22.1713-67.3761L24.9566-62.9321Q24.3043-61.8442 23.6649-60.7174Q23.0254-59.5905 22.4447-58.4244L17.185-58.6168Q15.5595-58.6794 14.1766-57.7774Q12.7937-56.8754 12.3106-55.3122Q11.7709-53.8061 12.2517-52.2754Q12.7325-50.7447 13.9424-49.7782L18.1158-46.4884Q17.8518-45.2603 17.5666-44.0042Q17.2815-42.7481 17.1571-41.4525L12.2089-39.8158Q8.72266-38.6673 8.72266-35.1184Q8.72266-31.5695 12.2089-30.4266L17.1571-28.7841Q17.2815-27.5514 17.5668-26.2638Q17.8521-24.9763 18.1158-23.6966L13.9995-20.4641Q12.7322-19.4976 12.2514-17.9355Q11.7707-16.3733 12.3106-14.9249Q12.7937-13.3043 14.1766-12.4025Q15.5595-11.5006 17.2421-11.5574L22.4447-11.8122Q23.0257-10.6516 23.665-9.55066Q24.3043-8.44975 24.9569-7.36159L22.1139-2.8089Q21.2732-1.48451 21.4214 0.111396Q21.5696 1.7073 22.535 2.90708Q24.9968 5.78975 28.3133 4.35145L33.0688 2.32968Q34.0845 3.23064 35.0846 4.06466Q36.0846 4.89869 37.1151 5.66548L35.9821 10.858Q35.2596 14.3544 38.3773 16.2155Q41.5729 18.0244 44.2182 15.5559L48.0852 12.0679Q49.2458 12.5231 50.4683 12.9739Q51.6908 13.4247 52.9186 13.7512L53.6202 18.9487Q54.0983 22.6169 57.7611 23.2774Q59.3866 23.5162 60.8005 22.7392Q62.2145 21.9623 62.9366 20.575L65.3536 15.9444Q66.059 16.0006 66.6983 16.0371Q67.3376 16.0737 67.9913 16.0737ZM67.9913 0.606432Q60.5715 0.606432 54.0812-2.18484Q47.5909-4.9761 42.7011-9.87372Q37.8113-14.7713 35.028-21.2667Q32.2447-27.7621 32.2447-35.17Q32.2447-42.5835 35.028-49.0816Q37.8113-55.5797 42.7011-60.4773Q47.5909-65.3749 54.0812-68.1664Q60.5715-70.9578 67.9913-70.9578Q75.4053-70.9578 81.8956-68.1664Q88.3859-65.3749 93.2757-60.4773Q98.1655-55.5797 100.949-49.0816Q103.732-42.5835 103.732-35.17Q103.732-27.7621 100.949-21.2667Q98.1655-14.7713 93.2757-9.87372Q88.3859-4.9761 81.8956-2.18484Q75.4053 0.606432 67.9913 0.606432ZM67.9169-17.829Q72.7822-17.829 77.085-20.5173Q81.3877-23.2056 83.6688-28.5261L110.566-28.5261L110.504-41.9864L83.7262-41.9864Q81.446-47.188 77.1145-49.8456Q72.7831-52.5032 67.9169-52.5032Q67.4729-52.5032 66.9261-52.4672Q66.3792-52.4313 65.5885-52.2971L52.3092-75.2864L40.3985-69.721L54.3846-45.4539Q52.6187-42.9788 51.7735-40.3101Q50.9283-37.6414 50.9283-35.1034Q50.9283-32.6398 51.7131-30.2339Q52.4979-27.828 54.3772-25.2333L39.7721-1.0427L51.5005 4.76096L65.3526-18.0362Q66.1953-17.8957 66.8052-17.8624Q67.4152-17.829 67.9169-17.829ZM62.2222-35.1089Q62.2222-37.4728 63.9302-39.1126Q65.6381-40.7525 67.9281-40.7525Q70.2863-40.7525 71.9086-39.1126Q73.5309-37.4728 73.5309-35.1089Q73.5309-32.8078 71.9086-31.1055Q70.2863-29.4032 67.9281-29.4032Q65.6381-29.4032 63.9302-31.1055Q62.2222-32.8078 62.2222-35.1089Z"/>
 </g>
</svg>
