<?xml version="1.0" encoding="UTF-8"?>
<!--Generator: Apple Native CoreSVG 341-->
<!DOCTYPE svg
PUBLIC "-//W3C//DTD SVG 1.1//EN"
       "http://www.w3.org/Graphics/SVG/1.1/DTD/svg11.dtd">
<svg version="1.1" xmlns="http://www.w3.org/2000/svg" xmlns:xlink="http://www.w3.org/1999/xlink" viewBox="0 0 11.537 11.4201">
 <g id="s" transform="matrix(0.13 0 0 0.13 -0.888672 10.2779)">
  <path d="M51.2334 3.19326Q51.8549 3.19326 52.4764 3.13555Q53.0979 3.07783 53.7526 3.0623L55.8745 7.11074Q56.2784 7.96514 57.1084 8.36792Q57.9384 8.7707 58.906 8.64199Q60.9543 8.28691 61.245 6.17422L61.882 1.6375Q63.0917 1.29346 64.2781 0.851758Q65.4645 0.410059 66.6431-0.0649414L69.9879 2.97139Q71.5347 4.40723 73.4232 3.34199Q75.1476 2.29453 74.7459 0.228418L73.7671-4.25947Q74.7814-4.97861 75.7714-5.77988Q76.7613-6.58115 77.6758-7.46455L81.8862-5.72002Q83.8236-4.92998 85.2262-6.57441Q85.7743-7.25127 85.8631-8.17114Q85.9519-9.09102 85.4192-9.89658L83.0044-13.7963Q83.708-14.8262 84.3051-15.9393Q84.9021-17.0524 85.4748-18.1978L90.0604-17.9691Q91.0124-17.9536 91.8024-18.4696Q92.5925-18.9855 92.8832-19.8888Q93.2228-20.7765 92.932-21.663Q92.6413-22.5496 91.9312-23.1311L88.3089-25.9543Q88.6196-27.164 88.8649-28.4236Q89.1102-29.6832 89.2411-30.9439L93.5492-32.3467Q95.582-33.0413 95.582-35.0563Q95.582-37.1047 93.5492-37.7993L89.2411-39.1688Q89.1102-40.4783 88.8649-41.7135Q88.6196-42.9487 88.3089-44.1917L91.9156-47.0149Q92.6413-47.6119 92.9154-48.4663Q93.1895-49.3207 92.8832-50.1929Q92.5925-51.1116 91.8024-51.6276Q91.0124-52.1436 90.0604-52.0947L85.4748-51.9149Q84.9021-53.0936 84.3051-54.1978Q83.708-55.3021 83.0044-56.3319L85.4192-60.2161Q85.9363-61.0062 85.8553-61.9171Q85.7743-62.8281 85.2262-63.4895Q83.8236-65.1517 81.8707-64.3771L77.6447-62.697Q76.7613-63.5315 75.7714-64.3417Q74.7814-65.1519 73.7671-65.8865L74.7459-70.3411Q75.1476-72.4894 73.3922-73.4547Q71.457-74.5199 69.9879-73.0508L66.6431-70.0655Q65.4645-70.5561 64.2703-70.9733Q63.0762-71.3906 61.882-71.7835L61.245-76.2714Q60.9543-78.3508 58.8749-78.7547Q57.9229-78.8834 57.1084-78.4729Q56.2939-78.0623 55.89-77.2878L53.7526-73.175Q53.0979-73.2238 52.4764-73.2405Q51.8549-73.2571 51.2334-73.2571Q50.5453-73.2571 49.9405-73.2405Q49.3356-73.2238 48.6653-73.175L46.5102-77.2723Q45.5914-79.0609 43.4787-78.7392Q41.4304-78.3508 41.1729-76.2714L40.5359-71.7835Q39.3085-71.3906 38.1144-70.99Q36.9202-70.5894 35.7749-70.0655L32.4123-73.0353Q30.9609-74.5199 28.977-73.4547Q27.2371-72.4894 27.6721-70.3256L28.6176-65.8865Q27.6032-65.1519 26.6133-64.3417Q25.6233-63.5315 24.7244-62.697L20.5317-64.3771Q18.5943-65.1517 17.1918-63.4895Q16.6104-62.8281 16.546-61.9171Q16.4816-61.0062 16.9654-60.2494L19.3803-56.3319Q18.6922-55.3021 18.0874-54.1978Q17.4825-53.0936 16.9099-51.9149L12.3243-52.0947Q11.3723-52.1436 10.5822-51.6276Q9.79219-51.1116 9.50146-50.2084Q9.19521-49.3207 9.46929-48.4585Q9.74336-47.5964 10.4868-47.0149L14.0758-44.1762Q13.7806-42.9487 13.5275-41.7135Q13.2745-40.4783 13.1769-39.1688L8.83545-37.7993Q6.83594-37.1047 6.83594-35.0563Q6.83594-33.008 8.83545-32.3467L13.1769-30.9439Q13.2745-29.6832 13.5275-28.4236Q13.7806-27.164 14.0758-25.9543L10.5023-23.1311Q9.74336-22.5496 9.46929-21.663Q9.19521-20.7765 9.50146-19.9043Q9.79219-18.9855 10.5822-18.4696Q11.3723-17.9536 12.3398-17.9691L16.9099-18.1978Q17.4825-17.0524 18.0874-15.9393Q18.6922-14.8262 19.3803-13.7963L16.9499-9.88105Q16.4661-9.10654 16.5382-8.17891Q16.6104-7.25127 17.1918-6.57441Q18.5943-4.92998 20.5473-5.73555L24.7089-7.46455Q25.6233-6.58115 26.6133-5.77988Q27.6032-4.97861 28.6176-4.25947L27.6721 0.243945Q27.2526 2.31006 28.9925 3.35752Q30.8811 4.42275 32.3968 2.98691L35.7749-0.0649414Q36.9202 0.410059 38.1144 0.851758Q39.3085 1.29346 40.5359 1.6375L41.1729 6.17422Q41.4304 8.28691 43.5098 8.65752Q44.4618 8.78623 45.2763 8.36792Q46.0907 7.94961 46.5102 7.12627L48.6653 3.0623Q49.3356 3.07783 49.9405 3.13555Q50.5453 3.19326 51.2334 3.19326ZM51.2334-5.3417Q45.0055-5.3417 39.6521-7.64775Q34.2986-9.95381 30.2736-14.0288Q26.2485-18.1038 23.9924-23.4905Q21.7363-28.8772 21.7363-35.0386Q21.7363-41.2332 23.9924-46.6366Q26.2485-52.0399 30.2736-56.1149Q34.2986-60.1899 39.6521-62.496Q45.0055-64.8021 51.2334-64.8021Q57.428-64.8021 62.7814-62.496Q68.1349-60.1899 72.1599-56.1149Q76.185-52.0399 78.4411-46.6366Q80.6972-41.2332 80.6972-35.0386Q80.6972-28.8772 78.4411-23.4905Q76.185-18.1038 72.1599-14.0288Q68.1349-9.95381 62.7814-7.64775Q57.428-5.3417 51.2334-5.3417ZM51.118-23.5024Q54.6091-23.5024 57.4687-25.4933Q60.3283-27.4841 61.9352-31.4169L85.1669-31.4169L85.1181-38.7068L61.9507-38.7068Q60.3438-42.5753 57.4765-44.5417Q54.6091-46.5081 51.118-46.5081Q50.7096-46.5081 50.178-46.4504Q49.6464-46.3927 48.794-46.2284L37.2081-66.1331L30.7215-62.7731L42.627-42.3937Q41.1266-40.5737 40.4341-38.7161Q39.7416-36.8585 39.7416-34.9564Q39.7416-33.1698 40.4019-31.4154Q41.0622-29.6609 42.5937-27.7767L30.2332-7.5459L36.6066-4.05723L48.6986-23.7821Q49.5332-23.5846 50.1136-23.5435Q50.694-23.5024 51.118-23.5024ZM46.7923-34.9897Q46.7923-36.8452 48.1184-38.0892Q49.4445-39.3332 51.1846-39.3332Q53.0067-39.3332 54.3096-38.0892Q55.6124-36.8452 55.6124-34.9897Q55.6124-33.1831 54.3096-31.8903Q53.0067-30.5975 51.1846-30.5975Q49.4445-30.5975 48.1184-31.8903Q46.7923-33.1831 46.7923-34.9897Z"/>
 </g>
</svg>
