<?xml version="1.0" encoding="UTF-8"?>
<!--Generator: Apple Native CoreSVG 341-->
<!DOCTYPE svg
PUBLIC "-//W3C//DTD SVG 1.1//EN"
       "http://www.w3.org/Graphics/SVG/1.1/DTD/svg11.dtd">
<svg version="1.1" xmlns="http://www.w3.org/2000/svg" xmlns:xlink="http://www.w3.org/1999/xlink" viewBox="0 0 12.3005 13.532">
 <g id="s" transform="matrix(0.13 0 0 0.13 -1.13395 11.9496)">
  <path d="M8.72266-35.1369Q8.72266-25.3516 12.4004-16.7812Q16.0781-8.21078 22.592-1.6969Q29.1059 4.81699 37.6763 8.49473Q46.2467 12.1725 56.032 12.1725Q65.8173 12.1725 74.357 8.49473Q82.8968 4.81699 89.4414-1.6969Q95.986-8.21078 99.6642-16.7812Q103.342-25.3516 103.342-35.1369Q103.342-43.8613 100.382-51.6525Q97.4217-59.4437 92.0928-65.7075Q86.764-71.9713 79.6283-76.1167Q72.4927-80.2621 64.1431-81.7592L64.1431-90.0966Q64.1431-91.2305 63.42-91.5753Q62.697-91.9201 61.5675-91.1672L47.1655-81.0668Q46.2257-80.4404 46.2253-79.6857Q46.2248-78.9309 47.1655-78.2412L61.5675-68.2031Q62.696-67.3889 63.4196-67.7644Q64.1431-68.14 64.1431-69.2747L64.1431-79.3416Q74.5997-77.4094 82.9393-71.0899Q91.2789-64.7704 96.1023-55.4321Q100.926-46.0938 100.926-35.1369Q100.926-25.8588 97.4388-17.7022Q93.9519-9.54549 87.7877-3.38078Q81.6235 2.78393 73.4668 6.27031Q65.3102 9.75669 56.032 9.75669Q46.7539 9.75669 38.5972 6.27031Q30.4406 2.78393 24.2759-3.38078Q18.1112-9.54549 14.6248-17.7022Q11.1384-25.8588 11.077-35.1369Q11.077-47.6426 17.3566-57.9725Q23.6363-68.3023 33.835-74.1573Q34.2789-74.4135 34.4062-74.89Q34.5335-75.3665 34.278-75.8727Q34.086-76.2562 33.6082-76.3821Q33.1304-76.508 32.6222-76.1896Q25.4642-72.073 20.081-65.8114Q14.6978-59.5498 11.7102-51.7337Q8.72266-43.9175 8.72266-35.1369Z"/>
 </g>
</svg>
