<?xml version="1.0" encoding="UTF-8"?>
<!--Generator: Apple Native CoreSVG 341-->
<!DOCTYPE svg
PUBLIC "-//W3C//DTD SVG 1.1//EN"
       "http://www.w3.org/Graphics/SVG/1.1/DTD/svg11.dtd">
<svg version="1.1" xmlns="http://www.w3.org/2000/svg" xmlns:xlink="http://www.w3.org/1999/xlink" viewBox="0 0 17.116 18.9192">
 <g id="s" transform="matrix(0.13 0 0 0.13 -1.46364 14.9453)">
  <path d="M11.2588-35.2433Q11.2588-21.7001 16.4081-9.79386Q21.5574 2.1124 30.6361 11.21Q39.7147 20.3076 51.621 25.438Q63.5273 30.5683 77.0704 30.5683Q90.6514 30.5683 102.551 25.438Q114.451 20.3076 123.536 11.21Q132.621 2.1124 137.771-9.79386Q142.92-21.7001 142.92-35.2433Q142.92-47.0131 138.995-57.6192Q135.07-68.2254 127.988-76.8231Q120.906-85.4208 111.414-91.2989Q101.923-97.1769 90.8198-99.5802L90.8198-109.302Q90.8198-113.01 88.2986-113.987Q85.7775-114.964 82.5743-112.658L60.2617-96.6276Q57.706-94.8012 57.7016-92.2208Q57.6971-89.6404 60.2617-87.7626L82.5364-71.7162Q85.7102-69.4266 88.265-70.3472Q90.8198-71.2678 90.8198-75.1108L90.8198-84.3029Q101.608-81.3748 110.034-74.2492Q118.461-67.1235 123.28-57.0584Q128.098-46.9933 128.098-35.2433Q128.098-24.6219 124.14-15.3648Q120.181-6.10769 113.193 0.898802Q106.206 7.9053 96.9488 11.864Q87.6918 15.8226 77.0704 15.8226Q66.4869 15.8226 57.2109 11.864Q47.9348 7.9053 40.9283 0.898802Q33.9218-6.10769 29.9632-15.3648Q26.0045-24.6219 26.0292-35.2433Q26.0292-47.2218 31.1489-57.3293Q36.2685-67.4368 44.9941-74.5144Q47.3971-76.8543 47.986-79.822Q48.5749-82.7897 46.445-85.39Q44.504-87.7888 41.4472-87.9219Q38.3904-88.0551 35.4219-85.5676Q28.1627-80.0347 22.7458-71.9963Q17.3288-63.9579 14.2938-54.5064Q11.2588-45.0549 11.2588-35.2433Z"/>
 </g>
</svg>
