<?xml version="1.0" encoding="UTF-8"?>
<!--Generator: Apple Native CoreSVG 341-->
<!DOCTYPE svg
PUBLIC "-//W3C//DTD SVG 1.1//EN"
       "http://www.w3.org/Graphics/SVG/1.1/DTD/svg11.dtd">
<svg version="1.1" xmlns="http://www.w3.org/2000/svg" xmlns:xlink="http://www.w3.org/1999/xlink" viewBox="0 0 10.0606 11.0605">
 <g id="s" transform="matrix(0.13 0 0 0.13 -0.888672 10.6114)">
  <path d="M6.83594-35.2236Q6.83594-27.2881 9.86837-20.2878Q12.9008-13.2876 18.2392-7.93241Q23.5776-2.57721 30.5779 0.438436Q37.5781 3.45408 45.5137 3.45408Q53.4828 3.45408 60.4755 0.438436Q67.4683-2.57721 72.8142-7.93241Q78.1601-13.2876 81.1927-20.2878Q84.2252-27.2881 84.2252-35.2236Q84.2252-42.2279 81.8385-48.5505Q79.4518-54.8731 75.1589-59.9656Q70.8661-65.0581 65.1405-68.4905Q59.4149-71.9228 52.7374-73.2295L52.7374-78.8628Q52.7374-80.6852 51.6537-81.1558Q50.5699-81.6264 49.118-80.6025L37.0639-72.1532Q35.8599-71.3282 35.843-70.2031Q35.8261-69.0781 37.0639-68.204L49.0845-59.7699Q50.5361-58.7311 51.6368-59.1924Q52.7374-59.6537 52.7374-61.5435L52.7374-67.3983Q60.1318-65.7837 65.9504-61.1646Q71.769-56.5455 75.1152-49.8277Q78.4615-43.1099 78.4615-35.2236Q78.4615-28.3526 75.9123-22.3773Q73.3632-16.4019 68.8493-11.8711Q64.3354-7.34024 58.36-4.79126Q52.3847-2.24228 45.5137-2.24228Q38.6762-2.24228 32.6841-4.79126Q26.6919-7.34024 22.1611-11.8711Q17.6303-16.4019 15.0813-22.3773Q12.5323-28.3526 12.5509-35.2236Q12.5509-43.6567 16.438-50.7514Q20.3252-57.8461 26.7832-62.2676Q27.7987-63.0356 28.0818-64.1262Q28.3648-65.2168 27.7313-66.2811Q27.1133-67.3154 25.9048-67.5309Q24.6964-67.7465 23.5644-66.8961Q18.5219-63.37 14.77-58.4628Q11.0181-53.5556 8.92703-47.6467Q6.83594-41.7379 6.83594-35.2236Z"/>
 </g>
</svg>
